{"title":"Gogglebox Au - S04E01","uid":15646098,"size":1126357242,"categoryP":"video","categoryS":"tv_shows","magnet":"?xt=urn:btih:084c754a95d5e4a1b6800c9ba8e2864df71b7e0b&amp;dn=Gogglebox+Au+-+S04E01&amp;tr=udp%3A%2F%2Ftracker.leechers-paradise.org%3A6969&amp;tr=udp%3A%2F%2Fzer0day.ch%3A1337&amp;tr=udp%3A%2F%2Fopen.demonii.com%3A1337&amp;tr=udp%3A%2F%2Ftracker.coppersurfer.tk%3A6969&amp;tr=udp%3A%2F%2Fexodus.desync.com%3A6969","seeders":4,"leechers":2,"uploader":"Bullrout","files":1,"time":1472053798,"description":"Gogglebox Au - S04E01\r\n\r\nThe Goggleboxers are back on their couches and sharing their reactions to the week's best TV moments including The Bachelor, Gruen, Survivor, the movie Beaches, and Olympics coverage.\r\n\r\nComplete name                            : Gogglebox Au - S04E01.mkv\r\nFormat                                   : Matroska\r\nFormat version                           : Version 4 / Version 2\r\nFile size                                : 1.05 GiB\r\nDuration                                 : 45mn 45s\r\nOverall bit rate mode                    : Variable\r\nOverall bit rate                         : 3 283 Kbps\r\nEncoded date                             : UTC 2016-08-24 13:37:54\r\nWriting application                      : mkvmerge v9.4.0 ('Knurl') 64bit\r\nWriting library                          : libebml v1.3.4 + libmatroska v1.4.5\r\n\r\nVideo\r\nID                                       : 2\r\nFormat                                   : AVC\r\nFormat/Info                              : Advanced Video Codec\r\nFormat profile                           :   \r\nFormat settings, CABAC                   : Yes\r\nFormat settings, ReFrames                : 3 frames\r\nCodec ID                                 : V_MPEG4/ISO/AVC\r\nDuration                                 : 45mn 45s\r\nBit rate mode                            : Variable\r\nBit rate                                 : 2 897 Kbps\r\nMaximum bit rate                         : 3 000 Kbps\r\nWidth                                    : 1 280 pixels\r\nHeight                                   : 720 pixels\r\nDisplay aspect ratio                     : 16:9\r\nFrame rate mode                          : Constant\r\nFrame rate                               : 25.000 fps\r\nStandard                                 : PAL\r\nColor space                              : YUV\r\nChroma subsampling                       : 4:2:0\r\nBit depth                                : 8 bits\r\nScan type                                : Progressive\r\nBits/(Pixel*Frame)                       : 0.126\r\nStream size                              : 948 MiB (88%)\r\nWriting library                          : x264 core 112\r\nDefault                                  : Yes\r\nForced                                   : No\r\nColor range                              : Limited\r\nColor primaries                          : BT.709\r\nTransfer characteristics                 : BT.709\r\nMatrix coefficients                      : BT.709\r\n\r\nAudio\r\nID                                       : 1\r\nFormat                                   : AC-3\r\nFormat/Info                              : Audio Coding 3\r\nMode extension                           : CM (complete main)\r\nFormat settings, Endianness              : Big\r\nCodec ID                                 : A_AC3\r\nDuration                                 : 45mn 45s\r\nBit rate mode                            : Constant\r\nBit rate                                 : 384 Kbps\r\nChannel(s)                               : 6 channels\r\nChannel positions                        : Front: L C R, Side: L R, LFE\r\nSampling rate                            : 48.0 KHz\r\nFrame rate                               : 31.250 fps (1536 spf)\r\nCompression mode                         : Lossy\r\nStream size                              : 126 MiB (12%)\r\nDefault                                  : Yes\r\nForced                                   : No","torrent":{"xt":"urn:btih:084c754a95d5e4a1b6800c9ba8e2864df71b7e0b","amp;dn":"Gogglebox+Au+-+S04E01","amp;tr":["udp%3A%2F%2Ftracker.leechers-paradise.org%3A6969","udp%3A%2F%2Fzer0day.ch%3A1337","udp%3A%2F%2Fopen.demonii.com%3A1337","udp%3A%2F%2Ftracker.coppersurfer.tk%3A6969","udp%3A%2F%2Fexodus.desync.com%3A6969"],"infoHash":"084c754a95d5e4a1b6800c9ba8e2864df71b7e0b","infoHashBuffer":{"type":"Buffer","data":[8,76,117,74,149,213,228,161,182,128,12,155,168,226,134,77,247,27,126,11]},"announce":[],"urlList":[]}}